<svg width="222" height="73" viewBox="0 0 222 73" fill="none" xmlns="http://www.w3.org/2000/svg">
<path d="M203.545 2.04914L18.7508 0.37186C18.0772 0.365746 17.4117 0.359705 16.7398 0.357054C16.1774 0.355397 15.6194 0.360676 15.0516 0.364139C13.8288 0.382344 12.5904 0.4435 11.3677 0.642693C10.1362 0.83836 8.99027 1.18132 7.86593 1.71753C6.76138 2.24874 5.75041 2.94284 4.87371 3.77088C3.98712 4.59882 3.25003 5.56086 2.68345 6.61234C2.10235 7.68093 1.72997 8.78072 1.50487 9.96114C1.27272 11.1277 1.18575 12.3094 1.14363 13.4915C1.12167 14.0325 1.11495 14.5754 1.10106 15.1165C1.09525 15.756 1.08943 16.3971 1.08357 17.0435L0.748305 53.981C0.74239 54.6326 0.736603 55.2703 0.730783 55.9115C0.734794 56.4596 0.731768 56.9905 0.743836 57.5388C0.764497 58.7215 0.830004 59.9045 1.04094 61.075C1.24458 62.2593 1.59688 63.371 2.15852 64.4464C2.70597 65.5028 3.42548 66.4782 4.29696 67.3152C5.15841 68.1658 6.15664 68.8765 7.25141 69.4225C8.36579 69.9842 9.50532 70.3428 10.7331 70.5675C11.9519 70.7889 13.189 70.8692 14.4113 70.9129C14.9789 70.9301 15.5367 70.942 16.0991 70.9472C16.7709 70.9568 17.4364 70.9628 18.11 70.9689L202.905 72.6462C203.565 72.6522 204.236 72.6583 204.896 72.6608C205.456 72.6658 206.03 72.6642 206.589 72.6572C207.82 72.6358 209.055 72.5779 210.266 72.3785C211.499 72.1762 212.646 71.8383 213.781 71.297C214.884 70.771 215.895 70.0786 216.771 69.2437C217.654 68.4226 218.391 67.4605 218.967 66.4143C219.54 65.3491 219.916 64.2441 220.135 63.0636C220.372 61.8971 220.454 60.7155 220.508 59.5335C220.52 58.9854 220.525 58.4545 220.53 57.9065C220.55 57.2654 220.556 56.6278 220.562 55.9762L220.897 19.0386C220.903 18.3923 220.909 17.7511 220.9 17.1115C220.905 16.5703 220.91 16.0274 220.908 15.4861C220.875 14.3034 220.815 13.1204 220.599 11.9497C220.402 10.7655 220.046 9.65908 219.492 8.58019C218.935 7.51851 218.215 6.54325 217.348 5.69939C216.487 4.85558 215.489 4.14325 214.396 3.59208C213.271 3.03546 212.129 2.67174 210.901 2.45374C209.694 2.2325 208.46 2.1489 207.23 2.10843C206.67 2.09474 206.096 2.07918 205.537 2.07066C204.876 2.06122 204.206 2.05513 203.545 2.04914Z" fill="#A6A6A6"/>
<path d="M16.1222 69.4062C15.5625 69.4011 15.0163 69.3892 14.4612 69.3722C13.4345 69.3352 12.217 69.269 11.0304 69.0532C9.911 68.8482 8.91737 68.5219 7.99587 68.0586C7.04217 67.5829 6.18659 66.9718 5.44603 66.241C4.69192 65.5172 4.07424 64.6877 3.5938 63.7593C3.12561 62.864 2.8087 61.9045 2.62294 60.8254C2.4095 59.6359 2.36304 58.4305 2.34713 57.5134C2.33886 57.1411 2.33486 55.9016 2.33486 55.9016L2.70492 15.1308C2.70492 15.1308 2.73214 13.9107 2.74614 13.5523C2.77876 12.6278 2.84709 11.4244 3.08019 10.251C3.28647 9.16948 3.6207 8.21672 4.10511 7.32653C4.60142 6.4054 5.23503 5.5829 5.99224 4.87618C6.75857 4.15227 7.6287 3.55515 8.58461 3.09497C9.53236 2.64335 10.5299 2.33783 11.6303 2.16252C12.8691 1.96089 14.1236 1.91884 15.0781 1.90423L16.7358 1.89773L205.514 3.61117L207.191 3.6488C208.132 3.67975 209.386 3.74456 210.602 3.96675C211.707 4.16294 212.705 4.4883 213.662 4.96152C214.6 5.43372 215.457 6.04651 216.202 6.77724C216.948 7.50106 217.57 8.33925 218.06 9.27278C218.525 10.1794 218.839 11.138 219.017 12.1919C219.22 13.3073 219.276 14.4515 219.306 15.5256C219.306 16.0255 219.301 16.5624 219.297 17.0967C219.305 17.7587 219.299 18.3886 219.294 19.0238L218.958 55.9613C218.953 56.6025 218.947 57.2282 218.927 57.8588C218.921 58.4328 218.917 58.9586 218.905 59.4996C218.857 60.5386 218.781 61.6808 218.561 62.7681C218.361 63.8488 218.029 64.8024 217.542 65.7065C217.039 66.6189 216.402 67.4421 215.654 68.1352C214.889 68.8661 214.022 69.4597 213.068 69.9165C212.111 70.3731 211.136 70.6728 209.995 70.8591C208.816 71.0535 207.598 71.0975 206.559 71.1158C206.02 71.1229 205.457 71.1246 204.91 71.1197L202.919 71.1051L16.1222 69.4062Z" fill="black"/>
<path d="M46.4122 36.4566C46.4103 31.6012 50.615 29.2765 50.8075 29.1678C48.4687 25.8273 44.8002 25.3401 43.5106 25.2931C40.4288 24.954 37.4194 27.0114 35.8476 26.9972C34.2453 26.9826 31.8409 25.2181 29.2344 25.2459C25.8791 25.2655 22.7224 27.1033 20.9743 29.9858C17.3681 35.8633 19.9391 44.5727 23.2989 49.3805C24.9803 51.7351 26.9465 54.3661 29.551 54.297C32.0999 54.2186 33.0647 52.7678 36.1403 52.7957C39.1873 52.8233 40.0659 54.3925 42.723 54.3577C45.4575 54.3399 47.201 52.0486 48.8653 49.7022C50.8573 47.0382 51.6713 44.4045 51.7041 44.2695C51.6406 44.2482 46.4114 42.2779 46.4122 36.4566Z" fill="white"/>
<path d="M41.5241 22.1321C42.9088 20.4974 43.8669 18.2661 43.6273 15.99C41.6429 16.0565 39.151 17.2669 37.7086 18.8656C36.4324 20.2731 35.2821 22.5896 35.5538 24.7791C37.7803 24.9583 40.0792 23.7402 41.5241 22.1321Z" fill="white"/>
<path d="M78.5101 48.8186L69.8152 48.7396L67.6733 54.6446L63.9905 54.6111L72.4251 32.7691L76.2514 32.8038L84.2882 54.7954L80.5425 54.7614L78.5101 48.8186ZM70.7405 46.0142L77.6326 46.0768L74.3222 36.4319L74.2271 36.4311L70.7405 46.0142Z" fill="white"/>
<path d="M102.147 46.9678C102.101 51.9334 99.3063 55.0986 95.132 55.0607C92.7623 55.0392 90.8898 54.0035 89.9247 52.2176L89.8457 52.2168L89.7739 60.1314L86.3602 60.1005L86.5532 38.8352L89.8575 38.8651L89.8334 41.5229L89.8961 41.5234C90.8607 39.8171 92.8942 38.7255 95.2173 38.7466C99.4383 38.7849 102.191 42.016 102.147 46.9678ZM98.6377 46.9359C98.6671 43.7008 96.9463 41.5581 94.2914 41.534C91.6831 41.5104 89.909 43.6661 89.88 46.8564C89.8508 50.076 91.5856 52.2481 94.1939 52.2718C96.8489 52.2959 98.6081 50.2004 98.6377 46.9359Z" fill="white"/>
<path d="M120.451 47.1338C120.406 52.0994 117.611 55.2646 113.437 55.2267C111.067 55.2052 109.194 54.1695 108.229 52.3836L108.15 52.3829L108.079 60.2975L104.665 60.2665L104.858 39.0012L108.162 39.0312L108.138 41.6889L108.201 41.6895C109.165 39.9831 111.199 38.8915 113.522 38.9126C117.743 38.9509 120.496 42.182 120.451 47.1338ZM116.942 47.1019C116.972 43.8668 115.251 41.7241 112.596 41.7001C109.988 41.6764 108.214 43.8321 108.185 47.0225C108.155 50.2421 109.89 52.4142 112.499 52.4378C115.154 52.4619 116.913 50.3664 116.942 47.1019Z" fill="white"/>
<path d="M132.533 49.1263C132.766 51.302 134.951 52.749 137.954 52.7763C140.831 52.8024 142.914 51.3941 142.932 49.4344C142.948 47.7333 141.708 46.7033 138.758 45.9784L135.808 45.2673C131.628 44.2572 129.701 42.3575 129.729 39.3033C129.763 35.5218 133.216 32.9555 138.087 32.9997C142.907 33.0435 146.188 35.6709 146.264 39.4534L142.818 39.4221C142.632 37.233 140.762 35.8957 138.012 35.8707C135.262 35.8458 133.368 37.1645 133.351 39.1086C133.337 40.6581 134.53 41.5808 137.464 42.3055L139.972 42.9212C144.642 44.0272 146.571 45.8511 146.542 49.0569C146.504 53.1573 143.082 55.6945 137.675 55.6455C132.616 55.5995 129.223 53.0608 129.039 49.0946L132.533 49.1263Z" fill="white"/>
<path d="M154.032 35.6654L153.997 39.4469L157.16 39.4756L157.136 42.073L153.974 42.0443L153.894 50.8534C153.881 52.2219 154.509 52.8654 155.899 52.878C156.247 52.8812 156.802 52.8396 157.023 52.8124L156.999 55.3942C156.62 55.4822 155.861 55.5356 155.102 55.5287C151.735 55.4981 150.433 54.2711 150.461 51.1722L150.544 42.0132L148.126 41.9912L148.149 39.3938L150.567 39.4157L150.602 35.6343L154.032 35.6654Z" fill="white"/>
<path d="M158.918 47.4838C158.964 42.4562 162.074 39.3248 166.88 39.3685C171.702 39.4122 174.741 42.5994 174.695 47.627C174.649 52.6684 171.569 55.7862 166.731 55.7423C161.895 55.6984 158.872 52.5252 158.918 47.4838ZM171.217 47.5954C171.248 44.1466 169.621 42.0961 166.855 42.071C164.089 42.0459 162.427 44.082 162.396 47.5154C162.365 50.978 163.99 53.0129 166.756 53.038C169.522 53.0631 171.185 51.0581 171.217 47.5954Z" fill="white"/>
<path d="M177.582 39.6613L180.838 39.6909L180.814 42.4107L180.893 42.4114C181.431 40.6081 182.958 39.5429 184.919 39.5607C185.409 39.5652 185.819 39.6309 186.088 39.6937L186.06 42.7616C185.792 42.6523 185.192 42.5555 184.528 42.5495C182.33 42.5296 180.958 43.9461 180.937 46.1936L180.851 55.6714L177.437 55.6405L177.582 39.6613Z" fill="white"/>
<path d="M201.724 51.1683C201.239 54.0649 198.28 56.0289 194.519 55.9948C189.68 55.9509 186.706 52.8092 186.751 47.8126C186.797 42.8004 189.845 39.5772 194.524 39.6197C199.125 39.6614 201.991 42.7246 201.947 47.5695L201.937 48.6933L190.19 48.5867L190.189 48.7849C190.164 51.5185 191.934 53.3272 194.621 53.3516C196.518 53.3688 198.013 52.5171 198.483 51.1389L201.724 51.1683ZM190.227 46.2945L198.542 46.37C198.485 43.9235 196.871 42.2989 194.5 42.2774C192.144 42.256 190.423 43.8814 190.227 46.2945Z" fill="white"/>
<path d="M70.9158 16.2567C73.0577 16.2762 74.5175 17.7123 74.4986 19.7996C74.4799 21.8575 72.9494 23.2596 70.7986 23.2401L68.262 23.2171L68.2298 26.7642L66.5275 26.7487L66.623 16.2178L70.9158 16.2567ZM68.2751 21.7796L70.417 21.7991C71.8826 21.8124 72.7484 21.0903 72.7603 19.7838C72.7724 18.448 71.9503 17.7106 70.4542 17.697L68.3123 17.6776L68.2751 21.7796Z" fill="white"/>
<path d="M76.7351 18.8945L78.3066 18.9088L78.2955 20.1274L78.4175 20.1285C78.6596 19.3498 79.5832 18.7885 80.6631 18.7983C80.9053 18.8005 81.2172 18.8249 81.3908 18.8704L81.3768 20.4182C81.2408 20.373 80.7552 20.3178 80.4664 20.3151C79.2286 20.3039 78.3481 21.0474 78.338 22.1643L78.2954 26.8567L76.663 26.8419L76.7351 18.8945Z" fill="white"/>
<path d="M89.9233 24.8151C89.5391 26.2354 88.209 27.0989 86.3183 27.0818C83.9486 27.0603 82.5115 25.4856 82.5346 22.945C82.5576 20.4054 84.054 18.8064 86.386 18.8276C88.6876 18.8485 90.0623 20.3718 90.0397 22.8675L90.0347 23.4147L84.1939 23.3617L84.1931 23.4496C84.2342 24.8436 85.0693 25.7346 86.3753 25.7464C87.3637 25.7554 88.0431 25.4186 88.3519 24.8008L89.9233 24.8151ZM84.2044 22.2018L88.3823 22.2397C88.356 20.9915 87.574 20.1734 86.3649 20.1624C85.1577 20.1514 84.3071 20.9616 84.2044 22.2018Z" fill="white"/>
<path d="M92.2556 23.5078L92.2695 21.9678L97.2529 22.013L97.2389 23.553L92.2556 23.5078Z" fill="white"/>
<path d="M99.4567 23.0699C99.48 20.5078 100.983 18.9598 103.398 18.9817C105.807 19.0036 107.282 20.5786 107.258 23.1407C107.235 25.7166 105.739 27.2578 103.323 27.2359C100.901 27.2139 99.4333 25.6458 99.4567 23.0699ZM105.579 23.1255C105.595 21.4028 104.799 20.388 103.385 20.3752C101.966 20.3623 101.159 21.3625 101.143 23.0852C101.127 24.8217 101.916 25.8286 103.335 25.8415C104.749 25.8543 105.563 24.8551 105.579 23.1255Z" fill="white"/>
<path d="M109.485 19.1914L111.057 19.2057L111.046 20.4242L111.167 20.4254C111.41 19.6467 112.333 19.0854 113.413 19.0952C113.655 19.0974 113.967 19.1218 114.141 19.1673L114.127 20.7151C113.991 20.6699 113.505 20.6146 113.216 20.612C111.979 20.6008 111.098 21.3443 111.088 22.4612L111.045 27.1536L109.413 27.1388L109.485 19.1914Z" fill="white"/>
<path d="M115.285 23.2142C115.308 20.703 116.666 19.1244 118.756 19.1433C119.888 19.1536 120.84 19.6802 121.281 20.5607L121.403 20.5618L121.442 16.1969L123.075 16.2117L122.975 27.2615L121.41 27.2473L121.422 25.9917L121.293 25.9905C120.791 26.8547 119.821 27.3638 118.682 27.3535C116.577 27.3344 115.263 25.7315 115.285 23.2142ZM116.972 23.2295C116.956 24.9152 117.774 25.937 119.157 25.9496C120.534 25.9621 121.394 24.9408 121.409 23.2767C121.424 21.6204 120.574 20.5689 119.206 20.5565C117.832 20.5441 116.987 21.5577 116.972 23.2295Z" fill="white"/>
<path d="M132.665 25.2028C132.281 26.6231 130.951 27.4866 129.06 27.4695C126.691 27.448 125.254 25.8733 125.277 23.3327C125.3 20.7931 126.796 19.1941 129.128 19.2153C131.43 19.2362 132.804 20.7595 132.782 23.2552L132.777 23.8024L126.936 23.7494L126.935 23.8373C126.976 25.2313 127.812 26.1223 129.117 26.1341C130.106 26.1431 130.785 25.8062 131.094 25.1885L132.665 25.2028ZM126.947 22.5894L131.124 22.6274C131.098 21.3792 130.316 20.5611 129.107 20.5501C127.9 20.5391 127.049 21.3493 126.947 22.5894Z" fill="white"/>
<path d="M135.009 19.4238L136.58 19.4381L136.569 20.6567L136.691 20.6578C136.933 19.8791 137.857 19.3178 138.937 19.3276C139.179 19.3298 139.491 19.3542 139.664 19.3997L139.65 20.9475C139.514 20.9023 139.029 20.8471 138.74 20.8444C137.502 20.8332 136.622 21.5767 136.611 22.6936L136.569 27.386L134.936 27.3712L135.009 19.4238Z" fill="white"/>
<path d="M145.509 23.4879C145.533 20.9258 147.036 19.3778 149.45 19.3997C151.86 19.4216 153.334 20.9966 153.311 23.5587C153.288 26.1345 151.792 27.6758 149.375 27.6538C146.954 27.6318 145.486 26.0637 145.509 23.4879ZM151.632 23.5434C151.648 21.8207 150.851 20.806 149.438 20.7932C148.019 20.7803 147.211 21.7805 147.196 23.5032C147.18 25.2397 147.969 26.2466 149.388 26.2595C150.802 26.2723 151.616 25.273 151.632 23.5434Z" fill="white"/>
<path d="M155.538 19.6085L157.109 19.6227L157.098 20.8852L157.22 20.8864C157.629 20.0067 158.456 19.4816 159.701 19.4929C161.547 19.5096 162.554 20.584 162.537 22.4747L162.49 27.6196L160.858 27.6048L160.901 22.8538C160.913 21.5766 160.341 20.9362 159.133 20.9253C157.926 20.9143 157.151 21.6812 157.14 22.9213L157.098 27.5706L155.466 27.5558L155.538 19.6085Z" fill="white"/>
<path d="M171.803 17.7777L171.785 19.7926L173.577 19.8088L173.565 21.1299L171.773 21.1137L171.735 25.2002C171.728 26.0327 172.082 26.4005 172.894 26.4079C173.145 26.4102 173.289 26.3968 173.517 26.3773L173.505 27.6838C173.239 27.7245 172.936 27.7588 172.616 27.7559C170.801 27.7394 170.084 27.1192 170.098 25.587L170.138 21.0988L168.825 21.0869L168.837 19.7658L170.15 19.7777L170.169 17.7629L171.803 17.7777Z" fill="white"/>
<path d="M175.836 16.6904L177.454 16.7051L177.414 21.0847L177.543 21.0859C177.953 20.1984 178.832 19.6738 180.079 19.6851C181.84 19.7011 182.917 20.7839 182.9 22.6737L182.854 27.8048L181.22 27.79L181.263 23.0459C181.274 21.7764 180.665 21.128 179.511 21.1175C178.173 21.1054 177.421 21.9095 177.41 23.1134L177.368 27.755L175.736 27.7402L175.836 16.6904Z" fill="white"/>
<path d="M192.39 25.7448C192.006 27.1651 190.676 28.0286 188.785 28.0115C186.415 27.99 184.978 26.4152 185.001 23.8747C185.024 21.335 186.521 19.7361 188.853 19.7573C191.154 19.7782 192.529 21.3015 192.506 23.7972L192.501 24.3444L186.661 24.2914L186.66 24.3793C186.701 25.7733 187.536 26.6643 188.842 26.6761C189.83 26.6851 190.51 26.3482 190.819 25.7305L192.39 25.7448ZM186.671 23.1314L190.849 23.1694C190.823 21.9212 190.041 21.1031 188.832 21.0921C187.624 21.0811 186.774 21.8913 186.671 23.1314Z" fill="white"/>
</svg>
