<svg width="26" height="29" viewBox="0 0 26 29" fill="none" xmlns="http://www.w3.org/2000/svg">
<path d="M25.3285 3.16296L25.3463 28.4042C21.734 25.2694 22.8893 26.3071 18.6932 22.4764L18.9683 25.0795L3.20498 25.0691C1.58579 25.068 0.266605 23.7729 0.265472 22.1687L0.252046 3.1464C0.250914 1.54244 1.56821 0.248917 3.18746 0.249987L22.3888 0.262667C24.0081 0.263737 25.3273 1.559 25.3285 3.16296Z" fill="#8A9CFE"/>
<path d="M19.1873 8.29416C17.1223 6.77291 15.1588 6.81379 15.1588 6.81379L14.9583 7.03889C17.3953 7.77227 18.5284 8.82854 18.5284 8.82854C15.1225 6.99405 11.1232 6.99115 7.82167 8.41337C7.29147 8.65223 6.97631 8.82091 6.97631 8.82091C6.97631 8.82091 8.16517 7.7099 10.7445 6.97983L10.6011 6.81078C10.6011 6.81078 8.63749 6.76731 6.57469 8.28583C6.57469 8.28583 4.5134 11.9576 4.5166 16.4892C4.5166 16.4892 5.72204 18.5306 8.88947 18.6313C8.88947 18.6313 9.41939 17.9985 9.84898 17.4638C8.02833 16.9278 7.33966 15.8016 7.33966 15.8016C7.55059 15.9465 7.89839 16.1348 7.92752 16.1538C10.3476 17.4858 13.7842 17.9238 16.8714 16.6522C17.3728 16.4696 17.9317 16.2025 18.519 15.823C18.519 15.823 17.8032 16.9766 15.9259 17.496C16.3564 18.031 16.8728 18.6365 16.8728 18.6365C20.0402 18.5401 21.2569 16.5002 21.2569 16.5002C21.2537 11.9687 19.1873 8.29416 19.1873 8.29416ZM10.2057 15.1842C9.40304 15.1837 8.7432 14.4796 8.74259 13.6211C8.74198 12.7626 9.38647 12.0594 10.2035 12.0599C11.0204 12.0604 11.6802 12.7645 11.6665 13.623C11.6671 14.4816 11.0226 15.1848 10.2057 15.1842ZM15.437 15.1877C14.6345 15.1872 13.9746 14.4831 13.974 13.6245C13.9734 12.766 14.6179 12.0628 15.4348 12.0634C16.2518 12.0639 16.8973 12.768 16.8979 13.6265C16.8985 14.485 16.254 15.1882 15.437 15.1877Z" fill="#FDFDFD"/>
</svg>
