<svg width="32" height="30" viewBox="0 0 32 30" fill="none" xmlns="http://www.w3.org/2000/svg">
<path d="M16.0445 29.9478C7.697 29.9436 0.92424 23.3398 0.919925 15.2006C0.915609 7.06134 7.68137 0.464348 16.0288 0.468553C24.3763 0.472759 31.149 7.07658 31.1534 15.2158C31.1577 23.355 24.3919 29.952 16.0445 29.9478Z" fill="#FF4500"/>
<path d="M19.5022 18.2826C18.6345 18.2822 17.9266 17.592 17.9262 16.7459C17.9257 15.8998 18.6329 15.2103 19.5006 15.2107C20.3683 15.2112 21.0762 15.9014 21.0766 16.7474C21.0771 17.5935 20.37 18.283 19.5022 18.2826ZM19.7817 20.8033C18.7059 21.8493 16.647 21.9308 16.0423 21.9305C15.4376 21.9302 13.3756 21.8466 12.3017 20.7995C12.1414 20.6432 12.1412 20.3926 12.3014 20.2365C12.4616 20.0803 12.7185 20.0804 12.8789 20.2368C13.5565 20.8975 15.0048 21.134 16.0419 21.1346C17.0759 21.1351 18.527 20.9 19.2039 20.2399C19.3641 20.0838 19.6211 20.0839 19.7814 20.2402C19.9387 20.3966 19.9389 20.6471 19.7817 20.8033ZM10.9964 16.7424C10.996 15.8963 11.7031 15.2068 12.5708 15.2072C13.4386 15.2077 14.1464 15.8979 14.1469 16.744C14.1473 17.59 13.4402 18.2795 12.5725 18.2791C11.7047 18.2787 10.9969 17.5885 10.9964 16.7424ZM26.1129 15.2141C26.1123 14.026 25.1261 13.0644 23.9077 13.0638C23.312 13.0635 22.774 13.2932 22.3781 13.6674C20.8719 12.6053 18.7944 11.9203 16.4814 11.8396L17.4828 7.23229L20.7636 7.91494C20.8033 8.72862 21.4869 9.37754 22.3305 9.37796C23.2012 9.3784 23.9053 8.69186 23.9049 7.84282C23.9044 6.99379 23.1996 6.30653 22.3289 6.3061C21.709 6.30578 21.1801 6.65634 20.9234 7.16327L17.2586 6.40083C17.1558 6.38014 17.05 6.39777 16.9623 6.45374C16.8747 6.50971 16.8142 6.59517 16.7931 6.6954L15.6953 11.7507C15.6892 11.7802 15.6953 11.8068 15.6953 11.8362C13.3401 11.894 11.224 12.5798 9.69471 13.6551C9.29844 13.2835 8.76317 13.0562 8.17057 13.0559C6.95212 13.0553 5.96698 14.0188 5.96761 15.2039C5.96808 16.0765 6.50363 16.8285 7.27176 17.165C7.23862 17.3773 7.22059 17.5954 7.22071 17.8165C7.22246 21.1242 11.1725 23.806 16.0433 23.8084C20.9141 23.8109 24.8613 21.1331 24.8595 17.8254C24.8594 17.6072 24.8412 17.392 24.8078 17.1797C25.5726 16.8441 26.1134 16.0926 26.1129 15.2141Z" fill="white"/>
</svg>
